<?xml version="1.0"?>
<svg xmlns="http://www.w3.org/2000/svg" id="Out_line" height="512px" viewBox="0 0 512 512" width="512px" data-name="Out line" class=""><g transform="matrix(0.470587 0 0 0.470587 135.53 135.53)"><path d="m496 112v-64a32.03635 32.03635 0 0 0 -32-32h-272a32.03635 32.03635 0 0 0 -32 32v64a32.05723 32.05723 0 0 0 24 30.9873v26.04883a32.04878 32.04878 0 0 0 -22.17725 20.29787l15.08594 5.332a16.02783 16.02783 0 0 1 15.09131-10.666h272a16.01833 16.01833 0 0 1 16 16v64a16.01833 16.01833 0 0 1 -16 16h-232v16h176v24h-152v16h208a16.01833 16.01833 0 0 1 16 16v64a16.01833 16.01833 0 0 1 -16 16h-208v16h152v40a8.00008 8.00008 0 0 0 8 8h48a8.00008 8.00008 0 0 0 8-8v-41.0127a32.05723 32.05723 0 0 0 24-30.9873v-64a32.05723 32.05723 0 0 0 -24-30.9873v-26.0254a32.05723 32.05723 0 0 0 24-30.9873v-64a32.05723 32.05723 0 0 0 -24-30.9873v-26.0254a32.05723 32.05723 0 0 0 24-30.9873zm-72 368v-32h32v32zm0-184h32v24h-32zm-192-152v24h-32v-24zm16 0h160v24h-160zm176 0h32v24h-32zm-248-32v-64a16.01833 16.01833 0 0 1 16-16h272a16.01833 16.01833 0 0 1 16 16v64a16.01833 16.01833 0 0 1 -16 16h-272a16.01833 16.01833 0 0 1 -16-16z" data-original="#000000" class="active-path" data-old_color="#000000" fill="#FFFFFF"/><path d="m232 80a24 24 0 1 0 -24 24 24.02718 24.02718 0 0 0 24-24zm-32 0a8 8 0 1 1 8 8 8.00917 8.00917 0 0 1 -8-8z" data-original="#000000" class="active-path" data-old_color="#000000" fill="#FFFFFF"/><path d="m264 104a24 24 0 1 0 -24-24 24.02718 24.02718 0 0 0 24 24zm0-32a8 8 0 1 1 -8 8 8.00917 8.00917 0 0 1 8-8z" data-original="#000000" class="active-path" data-old_color="#000000" fill="#FFFFFF"/><path d="m320 104a24 24 0 1 0 -24-24 24.02718 24.02718 0 0 0 24 24zm0-32a8 8 0 1 1 -8 8 8.00917 8.00917 0 0 1 8-8z" data-original="#000000" class="active-path" data-old_color="#000000" fill="#FFFFFF"/><path d="m384 48h72v16h-72z" data-original="#000000" class="active-path" data-old_color="#000000" fill="#FFFFFF"/><path d="m384 72h72v16h-72z" data-original="#000000" class="active-path" data-old_color="#000000" fill="#FFFFFF"/><path d="m384 96h72v16h-72z" data-original="#000000" class="active-path" data-old_color="#000000" fill="#FFFFFF"/><path d="m228.78418 244.00586a24.004 24.004 0 0 0 -20.78418-36.00586v16a8.00917 8.00917 0 0 1 8 8 7.87462 7.87462 0 0 1 -1.06543 3.99414z" data-original="#000000" class="active-path" data-old_color="#000000" fill="#FFFFFF"/><path d="m288 232a24 24 0 1 0 -24 24 24.02718 24.02718 0 0 0 24-24zm-32 0a8 8 0 1 1 8 8 8.00917 8.00917 0 0 1 -8-8z" data-original="#000000" class="active-path" data-old_color="#000000" fill="#FFFFFF"/><path d="m344 232a24 24 0 1 0 -24 24 24.02718 24.02718 0 0 0 24-24zm-32 0a8 8 0 1 1 8 8 8.00917 8.00917 0 0 1 -8-8z" data-original="#000000" class="active-path" data-old_color="#000000" fill="#FFFFFF"/><path d="m384 200h72v16h-72z" data-original="#000000" class="active-path" data-old_color="#000000" fill="#FFFFFF"/><path d="m384 224h72v16h-72z" data-original="#000000" class="active-path" data-old_color="#000000" fill="#FFFFFF"/><path d="m384 248h72v16h-72z" data-original="#000000" class="active-path" data-old_color="#000000" fill="#FFFFFF"/><path d="m264 392a7.8777 7.8777 0 0 1 -3.99463-1.06543l-8.01074 13.84961a24 24 0 1 0 0-41.56836l8.01074 13.84961a7.8777 7.8777 0 0 1 3.99463-1.06543 8 8 0 0 1 0 16z" data-original="#000000" class="active-path" data-old_color="#000000" fill="#FFFFFF"/><path d="m344 384a24 24 0 1 0 -24 24 24.02718 24.02718 0 0 0 24-24zm-32 0a8 8 0 1 1 8 8 8.00917 8.00917 0 0 1 -8-8z" data-original="#000000" class="active-path" data-old_color="#000000" fill="#FFFFFF"/><path d="m384 352h72v16h-72z" data-original="#000000" class="active-path" data-old_color="#000000" fill="#FFFFFF"/><path d="m384 376h72v16h-72z" data-original="#000000" class="active-path" data-old_color="#000000" fill="#FFFFFF"/><path d="m384 400h72v16h-72z" data-original="#000000" class="active-path" data-old_color="#000000" fill="#FFFFFF"/><path d="m232 304h-16v-16a88 88 0 0 0 -176 0v16h-16a8.00008 8.00008 0 0 0 -8 8v176a8.00008 8.00008 0 0 0 8 8h208a8.00008 8.00008 0 0 0 8-8v-176a8.00008 8.00008 0 0 0 -8-8zm-176-16a72 72 0 0 1 144 0v16h-24v-16a48 48 0 0 0 -96 0v16h-24zm104 16h-64v-16a32 32 0 0 1 64 0zm64 176h-192v-160h192z" data-original="#000000" class="active-path" data-old_color="#000000" fill="#FFFFFF"/><path d="m104 440a8.00008 8.00008 0 0 0 8 8h32a8.00008 8.00008 0 0 0 8-8v-34.84082a32 32 0 1 0 -48 0zm24-72a15.9971 15.9971 0 0 1 10.66406 27.92383 7.99832 7.99832 0 0 0 -2.66406 5.96v30.11617h-16v-30.11621a7.99832 7.99832 0 0 0 -2.66406-5.96 15.9971 15.9971 0 0 1 10.66406-27.92379z" data-original="#000000" class="active-path" data-old_color="#000000" fill="#FFFFFF"/></g> </svg>
