<?xml version="1.0"?>
<svg xmlns="http://www.w3.org/2000/svg" xmlns:xlink="http://www.w3.org/1999/xlink" version="1.1" id="Capa_1" x="0px" y="0px" viewBox="0 0 480.044 480.044" style="enable-background:new 0 0 480.044 480.044;" xml:space="preserve" width="512px" height="512px"><g transform="matrix(0.438618 0 0 0.438618 134.744 134.744)"><g>
	<g>
		<path d="M262.988,194.379c-1.844-5.929-6.032-10.847-11.592-13.613l-15.592-7.8c-3.376-1.686-4.745-5.789-3.059-9.165    c1.156-2.314,3.52-3.777,6.107-3.779h2.336c3.771,0.004,6.828,3.061,6.832,6.832v1.168h16v-1.168    c-0.037-9.94-6.511-18.71-16-21.672v-9.16h-16v9.16c-11.999,3.732-18.7,16.484-14.968,28.483    c1.844,5.929,6.032,10.847,11.592,13.613l15.592,7.8c3.376,1.686,4.745,5.789,3.059,9.165c-1.156,2.314-3.52,3.777-6.107,3.779    h-2.336c-3.771-0.004-6.828-3.061-6.832-6.832v-1.168h-16v1.168c0.037,9.94,6.511,18.71,16,21.672v9.16h16v-9.16    C260.019,219.13,266.72,206.378,262.988,194.379z" data-original="#000000" class="active-path" data-old_color="#000000" fill="#FFFFFF"/>
	</g>
</g><g>
	<g>
		<path d="M328.021,128.678V64.022h-16v67.016c0,1.574,0.465,3.113,1.336,4.424c26.88,40.491,15.847,95.106-24.644,121.986    c-40.491,26.88-95.106,15.847-121.986-24.644c-24.183-36.428-17.952-85.087,14.63-114.246c1.693-1.516,2.662-3.68,2.664-5.952    V32.022h-16v77.104c-41.433,39.779-42.773,105.615-2.994,147.048s105.615,42.773,147.048,2.994    C347.692,224.971,354.355,170.445,328.021,128.678z" data-original="#000000" class="active-path" data-old_color="#000000" fill="#FFFFFF"/>
	</g>
</g><g>
	<g>
		<path d="M280.021,24.022v64c-12.677-5.274-26.27-7.992-40-8c-2.608,0-5.264,0.12-8,0.352V40.022h-16v49.44    c0.001,2.352,1.037,4.585,2.832,6.104c1.804,1.508,4.174,2.159,6.496,1.784c20.169-3.59,40.958,0.096,58.664,10.4    c3.826,2.209,8.719,0.898,10.928-2.928c0.702-1.216,1.072-2.596,1.072-4v-76.8H280.021z" data-original="#000000" class="active-path" data-old_color="#000000" fill="#FFFFFF"/>
	</g>
</g><g>
	<g>
		<rect x="248.021" y="8.022" width="16" height="32" data-original="#000000" class="active-path" data-old_color="#000000" fill="#FFFFFF"/>
	</g>
</g><g>
	<g>
		<path d="M323.125,291.686c-23.759,18.463-53.015,28.438-83.104,28.336c-12.781,0.008-25.5-1.78-37.784-5.312l-4.432,15.376    c13.724,3.947,27.935,5.945,42.216,5.936c33.635,0.115,66.339-11.038,92.896-31.68L323.125,291.686z" data-original="#000000" class="active-path" data-old_color="#000000" fill="#FFFFFF"/>
	</g>
</g><g>
	<g>
		<path d="M147.125,63.702c-7.362,5.695-14.191,12.05-20.4,18.984l11.928,10.672c5.56-6.206,11.67-11.896,18.256-17L147.125,63.702z    " data-original="#000000" class="active-path" data-old_color="#000000" fill="#FFFFFF"/>
	</g>
</g><g>
	<g>
		<rect x="168.021" y="0.022" width="16" height="16" data-original="#000000" class="active-path" data-old_color="#000000" fill="#FFFFFF"/>
	</g>
</g><g>
	<g>
		<rect x="312.021" y="32.022" width="16" height="16" data-original="#000000" class="active-path" data-old_color="#000000" fill="#FFFFFF"/>
	</g>
</g><g>
	<g>
		<rect x="280.021" y="176.022" width="16" height="16" data-original="#000000" class="active-path" data-old_color="#000000" fill="#FFFFFF"/>
	</g>
</g><g>
	<g>
		<rect x="184.021" y="176.022" width="16" height="16" data-original="#000000" class="active-path" data-old_color="#000000" fill="#FFFFFF"/>
	</g>
</g><g>
	<g>
		<path d="M172.029,301.838l-8,13.84c5.446,3.157,11.083,5.97,16.88,8.424l6.224-14.752    C181.945,307.166,176.9,304.657,172.029,301.838z" data-original="#000000" class="active-path" data-old_color="#000000" fill="#FFFFFF"/>
	</g>
</g><g>
	<g>
		<path d="M470.901,206.486L423.773,82.902c-2.782-7.321-8.397-13.213-15.576-16.344c-7.28-3.233-15.555-3.4-22.96-0.464    c-7.385,2.869-13.285,8.619-16.344,15.928c-3.026,7.164-3.008,15.25,0.048,22.4l22.024,51.872    c-0.976-0.143-1.958-0.234-2.944-0.272c-15.464,0-28,12.536-28,28v62.056c-0.009,6.278-1.472,12.469-4.272,18.088    c-12.942,25.961-19.694,54.568-19.728,83.576v20.28c-4.418,0-8,3.582-8,8v64c0,4.418,3.582,8,8,8v32h16v-32h80v32h16v-32    c4.418,0,8-3.582,8-8v-64c0-4.418-3.582-8-8-8h-3.048l24.8-59.728C483.067,275.733,483.47,239.333,470.901,206.486z     M440.021,432.022h-96v-48h96V432.022z M454.981,302.206l-27.336,65.816h-75.624v-20.28c0.031-26.526,6.206-52.684,18.04-76.424    c3.913-7.839,5.953-16.479,5.96-25.24v-62.056c0.043-6.627,5.45-11.965,12.077-11.922c5.551,0.036,10.353,3.875,11.611,9.282    c0.096,1.048,0.312,2.072,0.312,3.136v95.504h16v-95.504c0-0.168,0-0.328,0-0.496c0-0.16-0.048-0.312-0.048-0.48    c-0.102-6.349-1.431-12.619-3.912-18.464L383.669,98.19c-1.356-3.187-1.356-6.789,0-9.976c1.399-3.314,4.089-5.914,7.448-7.2    c3.428-1.363,7.262-1.285,10.632,0.216c3.266,1.413,5.825,4.084,7.096,7.408l47.12,123.584    C467.068,241.255,466.716,273.423,454.981,302.206z" data-original="#000000" class="active-path" data-old_color="#000000" fill="#FFFFFF"/>
	</g>
</g><g>
	<g>
		<rect x="408.021" y="400.022" width="16" height="16" data-original="#000000" class="active-path" data-old_color="#000000" fill="#FFFFFF"/>
	</g>
</g><g>
	<g>
		<path d="M144.021,368.022v-20.28c-0.034-29.008-6.786-57.615-19.728-83.576c-2.8-5.619-4.263-11.81-4.272-18.088v-62.056    c0-15.464-12.536-28-28-28c-0.986,0.046-1.969,0.145-2.944,0.296l22.032-51.872c3.057-7.159,3.071-15.254,0.04-22.424    c-3.059-7.309-8.959-13.059-16.344-15.928c-7.406-2.932-15.679-2.764-22.96,0.464c-7.18,3.133-12.796,9.023-15.584,16.344    L9.141,206.486c-12.573,32.868-12.162,69.289,1.152,101.864l24.776,59.672h-3.048c-4.418,0-8,3.582-8,8v64c0,4.418,3.582,8,8,8v32    h16v-32h80v32h16v-32c4.418,0,8-3.582,8-8v-64C152.021,371.604,148.439,368.022,144.021,368.022z M25.085,302.262    c-11.758-28.808-12.113-61.012-0.992-90.072L71.221,88.606c1.271-3.324,3.83-5.995,7.096-7.408    c3.369-1.505,7.204-1.583,10.632-0.216c3.36,1.286,6.049,3.886,7.448,7.2c1.357,3.2,1.348,6.815-0.024,10.008l-28.352,66.888    c-2.481,5.845-3.81,12.115-3.912,18.464c0,0.168-0.048,0.32-0.048,0.48c0,0.168,0,0.328,0,0.496v95.504h16v-95.504    c0-1.064,0.216-2.088,0.312-3.136c1.588-6.434,8.092-10.363,14.526-8.775c5.274,1.302,9.015,5.984,9.122,11.415v62.056    c0.007,8.761,2.047,17.401,5.96,25.24c11.834,23.74,18.009,49.898,18.04,76.424v20.28H52.396L25.085,302.262z M136.021,432.022    h-96v-48h96V432.022z" data-original="#000000" class="active-path" data-old_color="#000000" fill="#FFFFFF"/>
	</g>
</g><g>
	<g>
		<rect x="56.021" y="400.022" width="16" height="16" data-original="#000000" class="active-path" data-old_color="#000000" fill="#FFFFFF"/>
	</g>
</g></g> </svg>
